<svg  xmlns="http://www.w3.org/2000/svg" preserveAspectRatio="xMinYMin meet" viewBox="0 0 338 58" overflow="hidden"><defs><linearGradient x1="214.498" y1="460.49" x2="211.022" y2="489.708" gradientUnits="userSpaceOnUse" spreadMethod="reflect" id="b"><stop offset="0" stop-color="#D81735"/><stop offset=".2" stop-color="#D81735"/><stop offset=".33" stop-color="#F39423"/><stop offset=".47" stop-color="#FECA07"/><stop offset=".61" stop-color="#A6C83E"/><stop offset=".72" stop-color="#3CB6AA"/><stop offset=".8" stop-color="#1894D2"/><stop offset="1" stop-color="#1894D2"/></linearGradient><clipPath id="a"><path d="M55 458h169v29H55z"/></clipPath></defs><g clip-path="url(#a)" transform="translate(-55 -458)" fill-rule="evenodd"><path d="M133.503 467.399a7.44 7.44 0 0 0-2.999.553c-.926.384-1.774.96-2.543 1.728-.768.764-1.343 1.604-1.726 2.52-.383.916-.582 1.917-.599 3.002a8.034 8.034 0 0 0 .51 3.015 8.18 8.18 0 0 0 1.636 2.615c.731.801 1.539 1.408 2.423 1.821.883.414 1.852.638 2.905.673 1.126.055 2.164-.109 3.115-.49.952-.382 1.82-.99 2.606-1.826.804-.836 1.396-1.739 1.775-2.708.379-.969.55-2.015.514-3.135-.02-1.069-.222-2.059-.608-2.971a8.275 8.275 0 0 0-1.681-2.516c-.731-.766-1.539-1.337-2.422-1.715-.884-.378-1.852-.567-2.906-.566zm23.971-.107c-1.089-.016-2.093.168-3.012.553-.92.384-1.763.96-2.53 1.728-.768.764-1.343 1.605-1.726 2.521-.383.915-.582 1.916-.599 3.001a8.21 8.21 0 0 0 .492 3.015c.347.941.887 1.812 1.618 2.615.732.801 1.539 1.408 2.423 1.821.883.414 1.852.638 2.905.673 1.126.055 2.164-.109 3.116-.49.951-.382 1.819-.99 2.605-1.826.804-.836 1.396-1.739 1.779-2.708.383-.969.565-2.014.546-3.135a8.235 8.235 0 0 0-.639-2.971 8.384 8.384 0 0 0-1.686-2.516c-.732-.766-1.538-1.337-2.418-1.715-.88-.378-1.838-.566-2.874-.566zm-47.592 0a8.032 8.032 0 0 0-2.762.419 7.883 7.883 0 0 0-2.386 1.328 7.404 7.404 0 0 0-1.778 2.054 8.494 8.494 0 0 0-.974 2.615h15.621c-.393-1.889-1.287-3.422-2.681-4.598-1.394-1.176-3.074-1.782-5.04-1.818zm-23.336 0a8.03 8.03 0 0 0-2.761.419 7.884 7.884 0 0 0-2.386 1.328 7.405 7.405 0 0 0-1.779 2.054 8.515 8.515 0 0 0-.974 2.615h15.622c-.393-1.889-1.287-3.422-2.681-4.598-1.394-1.176-3.075-1.782-5.04-1.818zm-12.613-2.56v2.707c-1.256.041-2.281.385-3.074 1.032-.787.647-1.323 1.205-1.609 1.674-.459.778-.685 1.822-.68 3.134v12.144h-2.854v-20.299h2.536v2.884a5.719 5.719 0 0 1 1.068-1.451 6.533 6.533 0 0 1 1.469-1.077 6.904 6.904 0 0 1 1.558-.588 5.962 5.962 0 0 1 1.586-.16zm105.383-.061a6.738 6.738 0 0 1 2.912.787c1.18.634 2.207 1.637 3.082 3.01.875-1.373 1.902-2.376 3.082-3.01 1.18-.634 2.512-.889 3.996-.766 2.212.178 4.011.997 5.399 2.458a7.576 7.576 0 0 1 1.655 2.689c.371 1.026.557 2.171.558 3.437v12.147h-2.82v-12.467c0-.784-.115-1.513-.344-2.186a5.936 5.936 0 0 0-1.015-1.839 4.435 4.435 0 0 0-1.573-1.251c-.601-.282-1.268-.423-2.003-.423-.75 0-1.449.124-2.097.369a5.964 5.964 0 0 0-1.801 1.091c-1.073.962-1.609 2.173-1.609 3.633v13.073h-2.856V472.35c.006-1.46-.542-2.671-1.645-3.633-1.073-.968-2.36-1.454-3.862-1.46-1.467.006-2.647.564-3.541 1.674a5.685 5.685 0 0 0-.997 1.825 7.019 7.019 0 0 0-.326 2.2v12.467h-2.82v-12.147c-.001-1.266.179-2.411.54-3.437a7.422 7.422 0 0 1 1.637-2.689c1.358-1.461 3.146-2.28 5.364-2.458a8.235 8.235 0 0 1 1.084-.021zm-21.699-.046c1.414.052 2.725.349 3.934.889 1.208.541 2.305 1.336 3.289 2.384 1.97 2.067 2.957 4.525 2.963 7.375 0 2.922-1.071 5.452-3.213 7.59-1.056 1.05-2.216 1.83-3.482 2.338-1.266.509-2.632.737-4.099.685-1.414-.036-2.725-.32-3.933-.854-1.208-.533-2.305-1.316-3.29-2.348-.981-1.033-1.714-2.164-2.2-3.393-.485-1.23-.727-2.557-.727-3.982.001-1.48.267-2.858.799-4.133s1.325-2.439 2.378-3.492c1.056-1.068 2.217-1.858 3.482-2.37 1.266-.512 2.632-.741 4.099-.689zm-48.425-.081c.366-.015.739-.012 1.119.01 1.358.088 2.627.41 3.807.965 1.18.555 2.27 1.348 3.271 2.379 1.93 2.032 2.895 4.313 2.895 6.841v1.458h-18.302a7.91 7.91 0 0 0 .808 2.798 7.438 7.438 0 0 0 1.801 2.264 8.166 8.166 0 0 0 2.498 1.488 7.953 7.953 0 0 0 2.9.472c1.608-.019 2.986-.4 4.133-1.145 1.148-.745 2.07-1.848 2.766-3.31h2.896a10.846 10.846 0 0 1-1.528 2.935 10.135 10.135 0 0 1-2.333 2.267c-1.817 1.274-3.831 1.926-6.041 1.956a10.002 10.002 0 0 1-3.941-.725c-1.234-.502-2.387-1.268-3.459-2.299-1.073-1.05-1.885-2.193-2.435-3.43s-.835-2.576-.854-4.017c-.036-1.515.215-2.927.75-4.238.537-1.311 1.359-2.511 2.467-3.6 1.125-1.103 2.343-1.911 3.656-2.423a9.647 9.647 0 0 1 3.126-.646zm-23.336 0c.367-.015.74-.012 1.12.01 1.358.088 2.627.41 3.806.965 1.18.555 2.27 1.348 3.271 2.379 1.93 2.032 2.896 4.313 2.896 6.841v1.458H78.646a7.907 7.907 0 0 0 .809 2.798 7.436 7.436 0 0 0 1.8 2.264 8.16 8.16 0 0 0 2.499 1.488 7.955 7.955 0 0 0 2.9.472c1.608-.019 2.985-.4 4.133-1.145 1.148-.745 2.07-1.848 2.766-3.31h2.895a10.841 10.841 0 0 1-1.528 2.935 10.133 10.133 0 0 1-2.332 2.267c-1.817 1.274-3.831 1.926-6.042 1.956a10.003 10.003 0 0 1-3.94-.725c-1.234-.502-2.387-1.268-3.46-2.299-1.073-1.05-1.884-2.193-2.435-3.43-.55-1.237-.835-2.576-.853-4.017-.036-1.515.214-2.927.75-4.238.537-1.311 1.359-2.511 2.467-3.6 1.125-1.103 2.343-1.911 3.655-2.423a9.649 9.649 0 0 1 3.126-.646zm55.335-6.437h2.677v17.273c.036 1.461-.206 2.824-.727 4.089-.522 1.265-1.326 2.432-2.415 3.5-1.089 1.051-2.271 1.831-3.544 2.339-1.273.509-2.643.737-4.108.685-1.414-.036-2.725-.32-3.933-.854-1.209-.533-2.305-1.316-3.29-2.348-.981-1.033-1.714-2.164-2.2-3.393-.485-1.23-.728-2.557-.727-3.982.001-1.48.267-2.858.799-4.133.531-1.275 1.324-2.439 2.378-3.492 1.056-1.068 2.217-1.858 3.482-2.37 1.266-.512 2.632-.742 4.099-.689 3.004.112 5.507 1.31 7.509 3.594zM63.146 458h.714v2.418l-.715.035c-1.424.065-2.437.395-3.039.991-.447.476-.785.948-1.014 1.415a3.21 3.21 0 0 0-.344 1.416v.849h5.112v2.489h-5.112v17.81H56v-20.688c.036-2.154.705-3.812 2.005-4.973 1.3-1.162 3.014-1.749 5.14-1.762z" fill="#7F7F7F"/><path d="M207.999 468.934a7.807 7.807 0 0 0-1.85 2.009 7.701 7.701 0 0 0-1.005 2.476 7.268 7.268 0 0 0-.097 2.661c.133.875.42 1.742.862 2.598l11.92-9.553c-1.46-1.207-3.082-1.834-4.868-1.882-1.786-.048-3.44.516-4.962 1.691zm-2.213-1.683c.27-.236.557-.461.86-.676a10.168 10.168 0 0 1 3.497-1.59c1.241-.296 2.56-.356 3.956-.178 2.72.375 4.856 1.531 6.408 3.467l.895 1.117-13.965 11.193a7.798 7.798 0 0 0 2.334 1.648 7.278 7.278 0 0 0 2.764.632 7.956 7.956 0 0 0 2.819-.388 7.733 7.733 0 0 0 2.502-1.412c1.216-.998 2.05-2.535 2.451-3.405.763.108 1.595.06 2.536.348-.222.93-1.741 3.818-3.41 5.192a9.756 9.756 0 0 1-3.452 1.856c-1.248.37-2.598.488-4.049.354-1.464-.147-2.785-.527-3.964-1.137-1.179-.611-2.218-1.462-3.117-2.554-.957-1.138-1.633-2.373-2.028-3.705-.396-1.331-.505-2.753-.327-4.264.18-1.533.614-2.897 1.301-4.092a9.4 9.4 0 0 1 1.989-2.406z" fill="url(#b)"/></g></svg>